<svg xmlns="http://www.w3.org/2000/svg" viewBox="0 0 48 48" width="160" height="160" data-accessory="lamp" data-lamp="on" role="img" aria-label="Archie — Digging"><style>.archie-lamp,.archie-goggles{display:none}svg[data-accessory="lamp"] .archie-lamp,svg[data-accessory="goggles"] .archie-goggles{display:inline}svg[data-lamp="off"] .archie-beam{display:none}</style><g fill="none" stroke="var(--archie-ink, #ffffff)" stroke-width="2" stroke-linejoin="round" stroke-linecap="round"><g id="base" class="archie-base"><path d="M36.4 20.4 L42.4 11.6 L44.8 14 L39 22.8 Z" fill="var(--archie-body, #18181b)"/>
<path d="M21.6 26.4 Q30 21 38 22.8 L39.6 31.4 Q40 35.6 35 36 L26 38 Q21.6 38.4 21.2 34 Z" fill="var(--archie-body, #18181b)"/>
<rect x="33.4" y="34" width="4.2" height="11" rx="2.1" fill="var(--archie-body, #18181b)"/>
<rect x="15.4" y="38.6" width="6.6" height="5.6" rx="2.8" fill="var(--archie-body, #18181b)"/><rect x="22.6" y="40" width="6.6" height="5.6" rx="2.8" fill="var(--archie-body, #18181b)"/>
<g transform="translate(14.2 21.6) rotate(-30)"><path class="archie-ear" d="M6.6 -6 C14 -9.6 20 -3.4 18.6 4.6 C17.8 9.6 11 9.2 11 3.2 C11 -1 9 -3.6 6.6 -6 Z" fill="var(--archie-mass, #a396d6)" transform="rotate(8)"/><path class="archie-ear" d="M6.6 -6 C14 -9.6 20 -3.4 18.6 4.6 C17.8 9.6 11 9.2 11 3.2 C11 -1 9 -3.6 6.6 -6 Z" fill="var(--archie-mass, #a396d6)" transform="rotate(-16)"/><ellipse cx="0" cy="0" rx="8" ry="8.5" fill="var(--archie-body, #18181b)"/><path d="M-4 6 Q0 4.5 4 6 L5 15 Q0 18.5 -5 15 Z" fill="var(--archie-body, #18181b)"/><ellipse cx="0" cy="15" rx="2.2" ry="1.8" stroke="none" fill="var(--archie-ink, #ffffff)"/><circle cx="-3.5" cy="-1" r="1.5" stroke="none" fill="var(--archie-ink, #ffffff)"/><circle cx="3.5" cy="-1" r="1.5" stroke="none" fill="var(--archie-ink, #ffffff)"/></g>
<path d="M28.6 29.6 l2.8 -1.1 l1.1 2.8 l-2.8 1.1 Z" class="archie-chip" stroke="none" fill="var(--archie-ink, #ffffff)"/>
<path d="M35 25 l2.2 -0.9 l0.9 2.2 l-2.2 0.9 Z" class="archie-chip" stroke="none" fill="var(--archie-ink, #ffffff)"/>
<path d="M41.6 29.4 l2.4 -1 l1 2.4 l-2.4 1 Z" class="archie-chip" stroke="none" fill="var(--archie-ink, #ffffff)"/>
<path d="M42.4 19.6 l1.8 -0.7 l0.7 1.8 l-1.8 0.7 Z" class="archie-chip" stroke="none" fill="var(--archie-ink, #ffffff)"/></g><g id="accessory" class="archie-accessory"><g id="lamp" class="archie-lamp" transform="translate(14.2 21.6) rotate(-30)"><g id="lamp-beam" class="archie-beam" transform="rotate(-18 0 -6.5)"><path d="M-8.6 -9.4 L-22 -12.2 L-22 -0.8 L-8.6 -3.6 Z" stroke="none" fill="var(--archie-accent-2, #3b3455)"/></g><path d="M-7.7 -1.8 Q0 -9.8 7.7 -1.8" fill="none"/><rect x="-2.4" y="-8.5" width="4.8" height="4" rx="1.3" fill="var(--archie-body, #18181b)"/><circle id="lamp-lens" class="archie-lens" cx="0" cy="-6.5" r="1.25" stroke="none" fill="var(--archie-accent, #a396d6)"/><circle cx="0" cy="-6.5" r="1.25" fill="none" stroke-width="1.1"/></g><g id="goggles" class="archie-goggles" transform="translate(14.2 21.6) rotate(-30)"><rect x="-7.8" y="-10.8" width="15.6" height="5.8" rx="2.9" fill="var(--archie-body, #18181b)"/><circle cx="-3.9" cy="-7.9" r="2.6" stroke="none" fill="var(--archie-accent, #a396d6)"/><circle cx="-3.9" cy="-7.9" r="2.6" fill="none" stroke-width="1.4"/><circle cx="3.9" cy="-7.9" r="2.6" stroke="none" fill="var(--archie-accent, #a396d6)"/><circle cx="3.9" cy="-7.9" r="2.6" fill="none" stroke-width="1.4"/></g></g></g></svg>
